<svg width="25" height="27" viewBox="0 0 25 27" fill="none" xmlns="http://www.w3.org/2000/svg">
<path d="M2.77778 0.5H22.2222C22.9589 0.5 23.6655 0.804364 24.1864 1.34614C24.7073 1.88791 25 2.62271 25 3.38889V23.6111C25 24.3773 24.7073 25.1121 24.1864 25.6539C23.6655 26.1956 22.9589 26.5 22.2222 26.5H2.77778C2.04107 26.5 1.33453 26.1956 0.813592 25.6539C0.292658 25.1121 0 24.3773 0 23.6111V3.38889C0 2.62271 0.292658 1.88791 0.813592 1.34614C1.33453 0.804364 2.04107 0.5 2.77778 0.5ZM20.8333 3.386H17.3611C16.0719 3.386 14.8354 3.91864 13.9238 4.86674C13.0122 5.81484 12.5 7.10074 12.5 8.44156V12.0527H9.72222V16.386H12.5V26.4971H16.6667V16.386H20.8333V12.0527H16.6667V9.16378C16.6667 8.78069 16.813 8.41329 17.0735 8.1424C17.3339 7.87152 17.6872 7.71933 18.0556 7.71933H20.8333V3.386Z" fill="#8A94F7"/>
</svg>
