<svg width="21" height="23" viewBox="0 0 21 23" fill="none" xmlns="http://www.w3.org/2000/svg">
<path d="M21 22.5H16.3333V14.25C16.3333 12.9557 14.9473 11.874 13.713 11.874C12.4763 11.874 11.6667 12.9557 11.6667 14.25V22.5H7V7.83333H11.6667V10.2778C12.439 8.96878 14.4153 8.123 15.7792 8.123C18.6632 8.123 21 10.62 21 13.6389V22.5ZM4.66667 22.5H0V7.83333H4.66667V22.5ZM2.33333 0.5C2.95217 0.5 3.54566 0.757539 3.98325 1.21596C4.42083 1.67438 4.66667 2.29614 4.66667 2.94444C4.66667 3.59275 4.42083 4.21451 3.98325 4.67293C3.54566 5.13135 2.95217 5.38889 2.33333 5.38889C1.71449 5.38889 1.121 5.13135 0.683417 4.67293C0.245833 4.21451 0 3.59275 0 2.94444C0 2.29614 0.245833 1.67438 0.683417 1.21596C1.121 0.757539 1.71449 0.5 2.33333 0.5Z" fill="#8A94F7"/>
</svg>
