<svg width="26" height="23" viewBox="0 0 26 23" fill="none" xmlns="http://www.w3.org/2000/svg">
<path d="M26 3.11016C25.026 3.55938 23.9929 3.85417 22.935 3.9847C24.0488 3.29094 24.8824 2.19942 25.2804 0.913474C24.2334 1.56006 23.088 2.01554 21.8935 2.26021C21.0906 1.36646 20.0266 0.773784 18.8667 0.574297C17.7069 0.37481 16.5163 0.57968 15.4798 1.15707C14.4434 1.73446 13.6192 2.65203 13.1354 3.76718C12.6515 4.88233 12.5351 6.13261 12.8042 7.32371C10.6834 7.21341 8.60854 6.64008 6.7144 5.64092C4.82026 4.64177 3.14917 3.23914 1.80965 1.5241C1.33536 2.3711 1.08613 3.33421 1.08753 4.31459C1.08697 5.22877 1.30338 6.12894 1.71752 6.93511C2.13166 7.74128 2.73072 8.42848 3.46145 8.93565C2.61394 8.90812 1.78505 8.66992 1.04403 8.24094V8.3108C1.04403 11.0017 2.8835 13.2449 5.32329 13.7559C4.53741 13.9783 3.71306 14.0106 2.91333 13.8504C3.25421 14.9536 3.9179 15.9184 4.81156 16.6096C5.70521 17.3009 6.78411 17.6841 7.89732 17.7056C6.00808 19.2496 3.67472 20.0871 1.27272 20.0834C0.841436 20.0834 0.417611 20.0575 0 20.0058C2.43903 21.6371 5.27777 22.503 8.17697 22.5C17.9871 22.5 23.3526 14.0393 23.3526 6.70403C23.3526 6.46211 23.3477 6.22278 23.3377 5.98474C24.3819 5.19884 25.283 4.2254 25.9988 3.11016H26Z" fill="#8A94F7"/>
</svg>
