<?xml version="1.0" standalone="no"?>
<!DOCTYPE svg PUBLIC "-//W3C//DTD SVG 20010904//EN"
 "http://www.w3.org/TR/2001/REC-SVG-20010904/DTD/svg10.dtd">
<svg version="1.0" xmlns="http://www.w3.org/2000/svg"
 width="700.000000pt" height="700.000000pt" viewBox="0 0 700.000000 700.000000"
 preserveAspectRatio="xMidYMid meet">
<metadata>
Created by potrace 1.14, written by Peter Selinger 2001-2017
</metadata>
<g transform="translate(0.000000,700.000000) scale(0.100000,-0.100000)"
fill="#000000" stroke="none">
<path d="M2420 4907 c-3 -3 -32 -7 -65 -10 -163 -15 -340 -78 -550 -194 -165
-91 -189 -106 -310 -186 -334 -223 -607 -458 -866 -748 -252 -281 -435 -583
-510 -839 -26 -87 -34 -147 -34 -255 0 -141 14 -199 81 -326 64 -120 222 -247
382 -306 79 -30 185 -61 227 -68 209 -36 256 -40 505 -40 195 0 342 6 455 19
17 2 59 7 95 11 36 4 67 8 70 10 3 2 34 6 70 10 36 3 153 24 260 45 447 90
799 213 1082 376 125 73 161 121 160 214 -1 122 -81 210 -192 212 -53 1 -68
-5 -230 -87 -216 -109 -334 -155 -570 -223 -162 -47 -412 -101 -539 -117 -30
-4 -61 -8 -70 -10 -9 -1 -43 -6 -76 -10 -32 -4 -67 -9 -77 -10 -125 -24 -628
-26 -773 -2 -179 29 -330 89 -394 159 -53 56 -61 198 -19 313 65 176 188 380
342 565 97 116 360 380 476 477 235 196 512 377 757 496 181 88 307 107 539
82 90 -10 134 4 189 59 71 71 83 172 31 255 -39 61 -94 90 -217 115 -64 13
-220 21 -229 13z"/>
<path d="M4557 4740 c-16 -5 -43 -20 -62 -34 -56 -43 -78 -90 -100 -216 -20
-116 -69 -267 -93 -288 -52 -47 -179 -224 -274 -382 -96 -160 -254 -489 -328
-685 -12 -33 -28 -73 -35 -90 -39 -90 -219 -661 -232 -734 -21 -127 20 -230
110 -277 48 -25 129 -25 185 1 64 30 101 79 163 216 77 170 127 274 347 719
221 448 223 452 342 725 9 22 30 74 45 115 16 41 32 79 36 83 14 17 75 -206
99 -358 6 -38 13 -81 15 -95 2 -14 7 -52 10 -85 4 -33 8 -71 10 -85 5 -33 12
-101 25 -230 6 -58 13 -121 15 -140 3 -19 7 -57 10 -85 5 -45 26 -193 41 -285
30 -190 97 -351 180 -435 68 -69 141 -100 234 -100 194 1 311 129 606 660 26
48 44 79 82 148 11 17 67 120 127 227 59 107 135 245 170 305 34 61 73 130 87
155 62 112 326 553 374 625 29 44 80 111 114 149 82 95 100 168 61 258 -22 51
-53 81 -104 103 -90 37 -177 14 -264 -70 -86 -84 -150 -176 -278 -397 -5 -10
-39 -66 -74 -125 -114 -193 -305 -528 -426 -748 -49 -88 -97 -173 -107 -190
-10 -16 -21 -37 -25 -45 -21 -45 -288 -500 -310 -529 -9 -12 -26 53 -38 144
-3 17 -7 48 -11 70 -4 22 -8 51 -10 65 -4 39 -15 123 -19 150 -2 14 -7 58 -10
97 -3 40 -8 80 -9 90 -2 10 -7 56 -11 103 -3 47 -8 92 -10 100 -2 8 -6 40 -10
70 -3 30 -7 69 -10 85 -2 17 -7 50 -10 75 -32 221 -102 468 -168 594 -39 73
-115 158 -168 188 -39 22 -40 23 -33 63 14 81 12 163 -6 202 -44 98 -156 152
-253 123z"/>
</g>
</svg>
